<svg width="42" height="40" viewBox="0 0 42 40" fill="none" xmlns="http://www.w3.org/2000/svg">
<path fill-rule="evenodd" clip-rule="evenodd" d="M19.2751 25C15.5932 25 12.6084 22.0152 12.6084 18.3333C12.6084 14.6514 15.5932 11.6667 19.2751 11.6667C22.957 11.6667 25.9417 14.6514 25.9417 18.3333C25.9417 19.8739 25.4192 21.2925 24.5416 22.4214L29.031 26.9107L27.8525 28.0892L23.3631 23.5999C22.2342 24.4774 20.8157 25 19.2751 25ZM24.2751 18.3333C24.2751 21.0947 22.0365 23.3333 19.2751 23.3333C16.5136 23.3333 14.2751 21.0947 14.2751 18.3333C14.2751 15.5719 16.5136 13.3333 19.2751 13.3333C22.0365 13.3333 24.2751 15.5719 24.2751 18.3333Z" fill="#8A94A4"/>
</svg>
